<svg width="54" height="49" viewBox="0 0 54 49" fill="none" xmlns="http://www.w3.org/2000/svg">
<path d="M3.87573 12.25H50.0632" stroke="#19B26B" stroke-width="3.5" stroke-linecap="round" stroke-linejoin="round"/>
<path d="M9.64917 12.25H44.2898V43.75C44.2898 44.6782 43.8843 45.5685 43.1625 46.2248C42.4406 46.8812 41.4616 47.25 40.4408 47.25H13.4981C12.4773 47.25 11.4983 46.8812 10.7765 46.2248C10.0547 45.5685 9.64917 44.6782 9.64917 43.75V12.25Z" stroke="#19B26B" stroke-width="3.5" stroke-linecap="round" stroke-linejoin="round"/>
<path d="M17.3472 12.2499V10.4999C17.3472 8.17926 18.361 5.95367 20.1655 4.31272C21.9701 2.67178 24.4175 1.74991 26.9696 1.74991C29.5216 1.74991 31.9691 2.67178 33.7736 4.31272C35.5782 5.95367 36.592 8.17926 36.592 10.4999V12.2499" stroke="#19B26B" stroke-width="3.5" stroke-linecap="round" stroke-linejoin="round"/>
<path d="M21.196 19.2499V38.4999" stroke="#19B26B" stroke-width="3.5" stroke-linecap="round" stroke-linejoin="round"/>
<path d="M32.7429 19.2499V38.4999" stroke="#19B26B" stroke-width="3.5" stroke-linecap="round" stroke-linejoin="round"/>
</svg>
