<svg width="54" height="49" viewBox="0 0 54 49" fill="none" xmlns="http://www.w3.org/2000/svg">
<path d="M3.87598 12.25H50.0635" stroke="#B21942" stroke-width="3.5" stroke-linecap="round" stroke-linejoin="round"/>
<path d="M9.64941 12.25H44.29V43.75C44.29 44.6782 43.8845 45.5685 43.1627 46.2248C42.4409 46.8812 41.4619 47.25 40.4411 47.25H13.4984C12.4776 47.25 11.4986 46.8812 10.7767 46.2248C10.0549 45.5685 9.64941 44.6782 9.64941 43.75V12.25Z" stroke="#B21942" stroke-width="3.5" stroke-linecap="round" stroke-linejoin="round"/>
<path d="M17.3472 12.2499V10.4999C17.3472 8.17926 18.361 5.95367 20.1655 4.31272C21.9701 2.67178 24.4175 1.74991 26.9696 1.74991C29.5216 1.74991 31.9691 2.67178 33.7736 4.31272C35.5782 5.95367 36.592 8.17926 36.592 10.4999V12.2499" stroke="#B21942" stroke-width="3.5" stroke-linecap="round" stroke-linejoin="round"/>
<path d="M21.1963 19.2499V38.4999" stroke="#B21942" stroke-width="3.5" stroke-linecap="round" stroke-linejoin="round"/>
<path d="M32.7432 19.2499V38.4999" stroke="#B21942" stroke-width="3.5" stroke-linecap="round" stroke-linejoin="round"/>
</svg>
