<svg width="45" height="45" viewBox="0 0 45 45" fill="none" xmlns="http://www.w3.org/2000/svg">
<path d="M38.571 33.6857C34.8371 33.6629 31.1764 32.6474 27.9643 30.7434C24.7522 28.8395 22.1043 26.1155 20.292 22.8508C18.4798 19.5861 17.5684 15.8981 17.6513 12.1651C17.7342 8.43199 18.8084 4.78814 20.7638 1.60712C15.6119 2.51156 10.9811 5.30143 7.77359 9.43327C4.56605 13.5651 3.01146 18.743 3.41264 23.9583C3.81381 29.1736 6.14203 34.0528 9.94376 37.6455C13.7455 41.2382 18.7485 43.287 23.9781 43.3928C27.556 43.402 31.0756 42.4864 34.1955 40.735C37.3154 38.9835 39.9298 36.4556 41.7853 33.3964C40.7224 33.572 39.6481 33.6687 38.571 33.6857V33.6857Z" stroke="#312F2F" stroke-width="5" stroke-linecap="round" stroke-linejoin="round"/>
</svg>
